HIERARCHY
ROOT Hips
{
 OFFSET 0.000000 0.000000 0.000000
 CHANNELS 6 Xposition Yposition Zposition Yrotation Xrotation Zrotation
 JOINT Chest
 {
  OFFSET 0.000000 9.588913 -0.003946
  CHANNELS 3 Yrotation Xrotation Zrotation
  JOINT Chest2
  {
   OFFSET 0.000000 9.541882 0.008053
   CHANNELS 3 Yrotation Xrotation Zrotation
   JOINT Chest3
   {
    OFFSET 0.000000 9.501360 0.000000
    CHANNELS 3 Yrotation Xrotation Zrotation
    JOINT Chest4
    {
     OFFSET 0.000000 9.491660 0.000000
     CHANNELS 3 Yrotation Xrotation Zrotation
     JOINT Neck
     {
      OFFSET 0.000000 14.331917 0.000000
      CHANNELS 3 Yrotation Xrotation Zrotation
      JOINT Head
      {
       OFFSET 0.000000 8.884799 0.017034
       CHANNELS 3 Yrotation Xrotation Zrotation
       End Site
       {
        OFFSET 0.000000 16.896195 0.008993
       }
      }
     }
     JOINT RightCollar
     {
      OFFSET -2.923010 9.499495 0.000000
      CHANNELS 3 Yrotation Xrotation Zrotation
      JOINT RightShoulder
      {
       OFFSET -13.795216 0.000000 0.000000
       CHANNELS 3 Yrotation Xrotation Zrotation
       JOINT RightElbow
       {
        OFFSET -30.272209 0.000000 0.000000
        CHANNELS 3 Yrotation Xrotation Zrotation
        JOINT RightWrist
        {
         OFFSET -24.478199 0.000000 0.000000
         CHANNELS 3 Yrotation Xrotation Zrotation
         End Site
         {
          OFFSET -18.090752 0.000000 0.000000
         }
        }
       }
      }
     }
     JOINT LeftCollar
     {
      OFFSET 2.923010 9.499495 0.000000
      CHANNELS 3 Yrotation Xrotation Zrotation
      JOINT LeftShoulder
      {
       OFFSET 13.795216 0.000000 0.000000
       CHANNELS 3 Yrotation Xrotation Zrotation
       JOINT LeftElbow
       {
        OFFSET 30.272209 0.000000 0.000000
        CHANNELS 3 Yrotation Xrotation Zrotation
        JOINT LeftWrist
        {
         OFFSET 24.478199 0.000000 0.000000
         CHANNELS 3 Yrotation Xrotation Zrotation
         End Site
         {
          OFFSET 18.090752 0.000000 0.000000
         }
        }
       }
      }
     }
    }
   }
  }
 }
 JOINT RightHip
 {
  OFFSET -7.826875 0.019532 0.001973
  CHANNELS 3 Yrotation Xrotation Zrotation
  JOINT RightKnee
  {
   OFFSET 0.000000 -40.546152 -0.001885
   CHANNELS 3 Yrotation Xrotation Zrotation
   JOINT RightAnkle
   {
    OFFSET 0.000000 -39.417092 -0.003189
    CHANNELS 3 Yrotation Xrotation Zrotation
    JOINT RightToe
    {
     OFFSET 0.000000 -7.579396 17.243563
     CHANNELS 3 Yrotation Xrotation Zrotation
     End Site
     {
      OFFSET 0.000000 -1.500329 6.694466
     }
    }
   }
  }
 }
 JOINT LeftHip
 {
  OFFSET 7.826875 0.019532 0.001973
  CHANNELS 3 Yrotation Xrotation Zrotation
  JOINT LeftKnee
  {
   OFFSET 0.000000 -40.546152 -0.001885
   CHANNELS 3 Yrotation Xrotation Zrotation
   JOINT LeftAnkle
   {
    OFFSET 0.000000 -39.417092 -0.003189
    CHANNELS 3 Yrotation Xrotation Zrotation
    JOINT LeftToe
    {
     OFFSET 0.000000 -7.579396 17.243563
     CHANNELS 3 Yrotation Xrotation Zrotation
     End Site
     {
      OFFSET 0.000000 -1.500329 6.694466
     }
    }
   }
  }
 }
}
MOTION
Frames: 7
Frame Time: 0.008333
0.000000 87.345680 0.000000 0.000000 -5.767889 0.000000 0.000000 11.653876 0.000000 0.000000 -5.885988 0.000000 0.000000 -0.000000 0.000000 0.000000 -0.000000 0.000000 0.000000 12.528808 0.000000 0.000000 0.711711 0.000000 0.000000 -0.000000 0.000000 0.000000 -0.000000 0.000000 2.309063 -0.000000 0.000000 -2.309063 -0.000000 -0.000000 0.000000 -0.000000 0.000000 0.000000 0.000000 0.000000 -2.309063 0.000000 0.000000 2.309063 -0.000000 0.000000 0.000000 8.520374 0.000000 0.000000 1.905768 0.000000 -0.000000 -4.658254 0.000000 0.000000 -0.000000 0.000000 0.000000 8.520374 0.000000 0.000000 1.905768 0.000000 -0.000000 -4.658254 0.000000 0.000000 -0.000000 0.000000
9.288775 88.542861 19.422037 -177.190804 -7.059775 -0.436866 1.356697 3.024991 0.358494 0.768449 1.706462 0.359317 0.962340 2.132310 0.452772 0.768449 1.706462 0.359317 0.243348 10.045201 -1.294646 0.557109 -15.071499 -1.429661 3.584941 1.591125 -0.577003 -10.435103 -7.211686 92.156621 3.668125 3.747902 1.802667 2.707950 -3.401259 0.141376 -9.825054 -0.655781 -0.712823 -1.512160 -12.264738 -91.639832 -15.397191 0.563690 -21.337274 0.211186 -1.673823 0.313923 -2.693783 -5.369403 -0.456904 5.408461 8.839814 0.064792 8.341178 3.418464 3.375801 0.019242 -0.241481 -0.018379 11.308788 11.168774 -2.134281 -4.826957 1.313926 -0.921860 -3.008590 -6.039850 4.368036 -0.014814 0.337319 0.022235
9.280565 88.544716 19.433701 -177.236392 -7.077455 -0.447968 1.383686 3.030250 0.346476 0.783638 1.712425 0.353135 0.981306 2.139762 0.445128 0.783638 1.712425 0.353136 0.217575 10.065813 -1.277092 0.525509 -15.049844 -1.404584 3.566861 1.610592 -0.560665 -10.390767 -7.202895 92.157953 3.749268 3.818662 1.851740 2.708527 -3.395992 0.154486 -9.789152 -0.583088 -0.717462 -1.261445 -11.931478 -91.672994 -14.646090 0.283368 -20.968759 0.217449 -1.718921 0.344721 -2.700226 -5.316048 -0.412758 5.390834 8.758827 0.056597 8.206149 3.475792 3.354069 0.001255 -0.238509 -0.023142 11.366381 11.186098 -2.123171 -4.813856 1.300750 -0.916788 -3.018603 -6.016320 4.369934 -0.016198 0.328077 0.018591
9.272085 88.547216 19.445946 -177.274837 -7.100951 -0.468716 1.407053 3.039776 0.342883 0.798595 1.717882 0.348083 0.999987 2.146579 0.438894 0.798595 1.717882 0.348083 0.189963 10.086975 -1.260569 0.492218 -15.027627 -1.380188 3.543396 1.628630 -0.547347 -10.372153 -7.186360 92.171835 3.814943 3.863187 1.889895 2.711690 -3.396154 0.161741 -9.756204 -0.514530 -0.717790 -1.018392 -11.595251 -91.715910 -13.890719 0.008244 -20.551611 0.217732 -1.769842 0.391191 -2.715400 -5.272170 -0.426405 5.393530 8.673815 0.053122 8.408032 3.541171 3.403676 0.013682 -0.253081 -0.014344 11.424812 11.204903 -2.102179 -4.801850 1.291372 -0.910134 -3.033673 -5.994488 4.372525 -0.017172 0.320213 0.014736
9.262802 88.550221 19.458645 -177.304489 -7.126095 -0.493619 1.426684 3.051070 0.344552 0.812790 1.722505 0.343496 1.017716 2.152354 0.433237 0.812790 1.722505 0.343497 0.160574 10.105094 -1.245479 0.457420 -15.008603 -1.356977 3.516284 1.644958 -0.536902 -10.382080 -7.164093 92.199429 3.862346 3.887262 1.916185 2.719228 -3.400511 0.164142 -9.726557 -0.450995 -0.714735 -0.797942 -11.257157 -91.763070 -13.137014 -0.278133 -20.090814 0.220024 -1.824707 0.454524 -2.739833 -5.236826 -0.481167 5.412013 8.585660 0.050128 8.838762 3.610047 3.504937 0.047092 -0.278296 0.003228 11.477316 11.222507 -2.076851 -4.792766 1.284154 -0.906390 -3.047084 -5.971871 4.376088 -0.017802 0.312316 0.012529
9.251494 88.553457 19.472165 -177.329167 -7.146830 -0.512326 1.445426 3.058442 0.341678 0.825805 1.725918 0.338765 1.033968 2.156618 0.427391 0.825805 1.725918 0.338765 0.132610 10.119253 -1.231582 0.424456 -14.993726 -1.335449 3.489084 1.661103 -0.527019 -10.424286 -7.136403 92.239131 3.893945 3.904041 1.930541 2.729387 -3.408879 0.162192 -9.696105 -0.393329 -0.709162 -0.611392 -10.915233 -91.805212 -12.394142 -0.584981 -19.592388 0.243112 -1.868294 0.529375 -2.764659 -5.198576 -0.502891 5.426778 8.504214 0.041739 9.080491 3.671526 3.568869 0.063695 -0.292325 0.011906 11.520257 11.234025 -2.058836 -4.786718 1.280032 -0.908434 -3.053902 -5.945498 4.382691 -0.018041 0.301251 0.011829
9.238131 88.556664 19.486461 -177.351999 -7.160874 -0.522055 1.465317 3.059768 0.330346 0.837525 1.728236 0.334336 1.048600 2.159515 0.421915 0.837525 1.728237 0.334336 0.107671 10.129716 -1.219206 0.395089 -14.982724 -1.316316 3.463254 1.680412 -0.518508 -10.491063 -7.105924 92.288290 3.911875 3.918216 1.933773 2.739048 -3.419674 0.152679 -9.659459 -0.340410 -0.704610 -0.460294 -10.572974 -91.833179 -11.665432 -0.903634 -19.058056 0.284601 -1.895714 0.604414 -2.785505 -5.150394 -0.452439 5.430285 8.435445 0.029261 8.917518 3.721232 3.545426 0.043343 -0.284838 0.003462 11.553132 11.237948 -2.052362 -4.778276 1.279056 -0.913479 -3.059036 -5.915674 4.390653 -0.017827 0.287169 0.012374
